<?xml version="1.0" encoding="UTF-8" standalone="no"?>
<svg
   xmlns:dc="http://purl.org/dc/elements/1.1/"
   xmlns:cc="http://creativecommons.org/ns#"
   xmlns:rdf="http://www.w3.org/1999/02/22-rdf-syntax-ns#"
   xmlns:svg="http://www.w3.org/2000/svg"
   xmlns="http://www.w3.org/2000/svg"
   viewBox="0 0 110.02867 117.33333"
   height="117.33333"
   width="110.02867"
   xml:space="preserve"
   id="svg2"
   version="1.1"><metadata
     id="metadata8"><rdf:RDF><cc:Work
         rdf:about=""><dc:format>image/svg+xml</dc:format><dc:type
           rdf:resource="http://purl.org/dc/dcmitype/StillImage" /></cc:Work></rdf:RDF></metadata><defs
     id="defs6"><clipPath
       id="clipPath18"
       clipPathUnits="userSpaceOnUse"><path
         id="path16"
         d="M 0,88 H 82.522 V 0 H 0 Z" /></clipPath><clipPath
       id="clipPath38"
       clipPathUnits="userSpaceOnUse"><path
         id="path36"
         d="M 0,88 H 82.522 V 0 H 0 Z" /></clipPath><clipPath
       id="clipPath160"
       clipPathUnits="userSpaceOnUse"><path
         id="path158"
         d="M 0,88 H 82.522 V 0 H 0 Z" /></clipPath></defs><g
     transform="matrix(1.3333333,0,0,-1.3333333,0,117.33333)"
     id="g10"><g
       id="g12"><g
         clip-path="url(#clipPath18)"
         id="g14"><g
           transform="translate(44.3913,77.3384)"
           id="g20"><path
             id="path22"
             style="fill:#f36b24;fill-opacity:1;fill-rule:nonzero;stroke:none"
             d="m 0,0 c 0.431,1.125 1.851,1.125 2.99,1.125 h 0.212 v 1.551 c 0,0 -4.443,-0.098 -5.803,-0.098 -1.4,0 -5.552,0.098 -5.552,0.098 V 1.125 h 0.212 c 1.139,0 2.559,0 2.988,-1.123 0.357,-0.964 0.357,-3.69 0.357,-4.854 v -9.907 c 0,-1.165 0,-3.89 -0.356,-4.853 -0.43,-1.124 -1.85,-1.124 -2.989,-1.124 h -0.212 v -1.552 c 0,0.004 3.591,0.153 5.558,0.153 2.265,0 5.797,-0.153 5.797,-0.153 v 1.552 H 2.99 c -1.139,0 -2.559,0 -2.989,1.122 -0.356,0.965 -0.356,3.69 -0.356,4.855 v 9.907 c 0,1.164 0,3.89 0.355,4.852" /></g><g
           transform="translate(50.9636,79.9897)"
           id="g24"><path
             id="path26"
             style="fill:#f36b24;fill-opacity:1;fill-rule:nonzero;stroke:none"
             d="m 0,0 v -6.475 h 1.54 l 0.007,0.204 c 0.141,4.213 1.753,4.391 5.385,4.391 0.125,0 0.25,0 0.373,10e-4 0.902,0.006 1.755,0.011 2.09,-0.322 0.111,-0.111 0.167,-0.265 0.167,-0.469 v -17.021 c 0,-2.526 -0.355,-3.57 -3.912,-3.717 l -0.203,-0.008 v -1.543 c 0,0 4.147,0.152 6.546,0.152 1.832,0 5.921,-0.152 5.921,-0.152 v 1.543 l -0.203,0.008 c -3.558,0.147 -3.91,1.191 -3.91,3.717 V -2.67 c 0,0.175 0.053,0.313 0.163,0.422 0.41,0.403 1.54,0.386 2.447,0.373 0.172,-0.003 0.341,-0.005 0.501,-0.005 3.552,0 4.696,-1.028 4.903,-4.397 l 0.013,-0.198 h 1.528 V 0 c 0,0 -8.961,-0.059 -11.677,-0.059 C 8.963,-0.059 0,0 0,0" /></g><g
           transform="translate(15.9245,68.1655)"
           id="g28"><path
             id="path30"
             style="fill:#f36b24;fill-opacity:1;fill-rule:nonzero;stroke:none"
             d="m 0,0 c 0,0 -0.001,9.014 -0.002,9.067 -0.006,0.36 -0.016,0.852 0.284,0.991 0.208,0.092 2.214,0.019 2.323,0.019 3.163,0 4.977,-1.851 4.977,-5.076 C 7.582,2.651 6.957,1.302 5.557,0.626 4.25,-0.005 0,0 0,0 m 16.868,-11.564 c -1.791,0.281 -2.329,0.483 -3.505,1.844 l -7.371,8.462 c 3.882,0.507 6.275,3.073 6.275,6.779 0,2.412 -0.932,4.153 -2.768,5.173 -1.397,0.776 -3.337,1.153 -5.936,1.153 -0.778,-0.019 -2.648,-0.084 -4.709,-0.084 -2.137,0 -6.577,0.087 -6.577,0.087 v -1.551 h 0.308 c 1.177,0.007 2.502,0.002 2.853,-1.116 0.323,-0.967 0.323,-3.693 0.323,-4.589 V -5.585 c 0,-1.124 -0.001,-2.83 -0.151,-3.998 -0.044,-0.344 -0.099,-0.644 -0.173,-0.865 -0.361,-1.115 -1.795,-1.115 -2.949,-1.115 h -0.211 v -1.55 c 0,0 3.456,0.152 5.766,0.152 1.986,0 5.44,-0.148 5.44,-0.152 v 1.55 H 3.177 c -1.158,-0.004 -2.471,-10e-4 -2.854,1.117 -0.074,0.22 -0.13,0.521 -0.174,0.863 C 0.001,-8.425 0,-6.764 0,-5.857 v 4.161 c 1.379,-0.012 1.499,-0.157 2.209,-1.013 0.131,-0.159 0.28,-0.338 0.454,-0.539 l 6.151,-7.633 1.81,-2.232 c 0,0 1.983,0.084 2.947,0.084 1.402,0 3.476,-0.087 3.476,-0.087 v 1.524 z" /></g></g></g><g
       id="g32"><g
         clip-path="url(#clipPath38)"
         id="g34"><g
           transform="translate(13.6111,36.9336)"
           id="g40"><path
             id="path42"
             style="fill:#ffffff;fill-opacity:1;fill-rule:nonzero;stroke:none"
             d="M 0,0 H 1.799 C 2.71,0 3.19,0.419 3.19,1.175 3.19,1.954 2.688,2.338 1.823,2.338 H 0 Z M 1.416,-1.416 H 0 V -4.727 H -1.799 V 3.85 H 1.967 C 2.962,3.85 3.706,3.562 4.21,3.046 4.689,2.554 4.979,1.954 4.979,1.187 c 0,-1.2 -0.625,-2.039 -1.705,-2.399 L 5.421,-4.727 H 3.406 Z" /></g><g
           transform="translate(23.7741,35.2773)"
           id="g44"><path
             id="path46"
             style="fill:#ffffff;fill-opacity:1;fill-rule:nonzero;stroke:none"
             d="m 0,0 c 0,1.199 -0.563,2.016 -1.56,2.016 -1.006,0 -1.559,-0.817 -1.559,-2.016 0,-1.199 0.553,-2.002 1.559,-2.002 C -0.563,-2.002 0,-1.199 0,0 m -4.772,0 c 0,1.836 1.306,3.25 3.212,3.25 1.909,0 3.215,-1.414 3.215,-3.25 0,-1.834 -1.306,-3.25 -3.215,-3.25 -1.906,0 -3.212,1.416 -3.212,3.25" /></g><g
           transform="translate(25.8884,35.2773)"
           id="g48"><path
             id="path50"
             style="fill:#ffffff;fill-opacity:1;fill-rule:nonzero;stroke:none"
             d="m 0,0 c 0,1.836 1.199,3.25 3.07,3.25 1.596,0 2.579,-0.923 2.795,-2.254 H 4.271 C 4.162,1.535 3.742,1.943 3.143,1.943 2.159,1.943 1.655,1.187 1.655,0 c 0,-1.163 0.468,-1.942 1.463,-1.942 0.66,0 1.128,0.347 1.236,1.044 H 5.926 C 5.817,-2.206 4.797,-3.25 3.154,-3.25 1.211,-3.25 0,-1.834 0,0" /></g><g
           transform="translate(34.155,37.5566)"
           id="g52"><path
             id="path54"
             style="fill:#ffffff;fill-opacity:1;fill-rule:nonzero;stroke:none"
             d="m 0,0 h 0.036 c 0.444,0.647 0.947,0.971 1.787,0.971 1.272,0 2.123,-0.959 2.123,-2.303 V -5.35 H 2.315 v 3.779 c 0,0.659 -0.383,1.128 -1.067,1.128 C 0.528,-0.443 0,-1.02 0,-1.859 V -5.35 H -1.631 V 3.227 H 0 Z" /></g><g
           transform="translate(40.4441,35.9492)"
           id="g56"><path
             id="path58"
             style="fill:#ffffff;fill-opacity:1;fill-rule:nonzero;stroke:none"
             d="M 0,0 H 2.733 C 2.687,0.779 2.171,1.319 1.427,1.319 0.563,1.319 0.144,0.804 0,0 m -1.631,-0.659 c 0,1.823 1.235,3.237 3.033,3.237 1.98,0 3.035,-1.51 3.035,-3.705 h -4.461 c 0.12,-0.947 0.648,-1.535 1.571,-1.535 0.636,0 1.008,0.287 1.186,0.756 H 4.342 C 4.113,-2.998 3.143,-3.922 1.559,-3.922 c -2.038,0 -3.19,1.428 -3.19,3.263" /></g><g
           transform="translate(45.2566,34.1982)"
           id="g60"><path
             id="path62"
             style="fill:#ffffff;fill-opacity:1;fill-rule:nonzero;stroke:none"
             d="m 0,0 h 1.512 c 0.107,-0.708 0.611,-1.019 1.342,-1.019 0.72,0 1.128,0.276 1.128,0.707 0,0.588 -0.78,0.648 -1.619,0.816 C 1.259,0.72 0.181,1.02 0.181,2.362 c 0,1.332 1.102,1.967 2.507,1.967 1.619,0 2.517,-0.803 2.637,-2.038 H 3.851 C 3.778,2.95 3.358,3.19 2.663,3.19 2.027,3.19 1.607,2.95 1.607,2.507 1.607,1.979 2.422,1.931 3.298,1.751 4.33,1.535 5.47,1.247 5.47,-0.192 5.47,-1.427 4.414,-2.171 2.878,-2.171 1.091,-2.171 0.097,-1.308 0,0" /></g><g
           transform="translate(50.9812,38.3604)"
           id="g64"><path
             id="path66"
             style="fill:#ffffff;fill-opacity:1;fill-rule:nonzero;stroke:none"
             d="M 0,0 H 0.852 V 1.919 H 2.446 V 0 H 3.502 V -1.079 H 2.446 v -3.263 c 0,-0.456 0.252,-0.612 0.613,-0.612 0.203,0 0.479,0.013 0.479,0.013 v -1.2 c 0,0 -0.372,-0.024 -1.019,-0.024 -0.792,0 -1.667,0.312 -1.667,1.476 v 3.61 H 0 Z" /></g><g
           transform="translate(56.5964,35.9492)"
           id="g68"><path
             id="path70"
             style="fill:#ffffff;fill-opacity:1;fill-rule:nonzero;stroke:none"
             d="M 0,0 H 2.733 C 2.687,0.779 2.171,1.319 1.427,1.319 0.562,1.319 0.144,0.804 0,0 m -1.632,-0.659 c 0,1.823 1.236,3.237 3.034,3.237 1.98,0 3.035,-1.51 3.035,-3.705 h -4.461 c 0.12,-0.947 0.647,-1.535 1.571,-1.535 0.636,0 1.007,0.287 1.186,0.756 H 4.341 C 4.113,-2.998 3.142,-3.922 1.559,-3.922 c -2.039,0 -3.191,1.428 -3.191,3.263" /></g><g
           transform="translate(63.363,37.377)"
           id="g72"><path
             id="path74"
             style="fill:#ffffff;fill-opacity:1;fill-rule:nonzero;stroke:none"
             d="m 0,0 h 0.036 c 0.372,0.695 0.792,1.055 1.511,1.055 0.181,0 0.288,-0.012 0.385,-0.047 V -0.42 H 1.896 C 0.828,-0.312 0.061,-0.876 0.061,-2.171 V -5.17 H -1.571 V 0.983 H 0 Z" /></g><path
           id="path76"
           style="fill:#ffffff;fill-opacity:1;fill-rule:nonzero;stroke:none"
           d="m 11.813,28.782 h 1.739 v -8.575 h -1.739 z" /><g
           transform="translate(16.3474,25.5205)"
           id="g78"><path
             id="path80"
             style="fill:#ffffff;fill-opacity:1;fill-rule:nonzero;stroke:none"
             d="m 0,0 h 0.036 c 0.42,0.659 0.984,1.007 1.823,1.007 1.271,0 2.122,-0.959 2.122,-2.303 V -5.313 H 2.352 v 3.778 c 0,0.659 -0.384,1.127 -1.069,1.127 -0.72,0 -1.247,-0.575 -1.247,-1.415 v -3.49 H -1.595 V 0.84 H 0 Z" /></g><g
           transform="translate(20.9568,22.1982)"
           id="g82"><path
             id="path84"
             style="fill:#ffffff;fill-opacity:1;fill-rule:nonzero;stroke:none"
             d="m 0,0 h 1.511 c 0.108,-0.708 0.612,-1.021 1.343,-1.021 0.72,0 1.127,0.278 1.127,0.709 0,0.587 -0.779,0.648 -1.619,0.816 C 1.259,0.72 0.18,1.02 0.18,2.362 c 0,1.332 1.103,1.967 2.507,1.967 1.619,0 2.518,-0.803 2.638,-2.038 H 3.85 C 3.777,2.95 3.357,3.19 2.663,3.19 2.026,3.19 1.606,2.95 1.606,2.507 1.606,1.979 2.422,1.931 3.298,1.751 4.33,1.535 5.469,1.247 5.469,-0.192 5.469,-1.428 4.414,-2.171 2.878,-2.171 1.091,-2.171 0.096,-1.308 0,0" /></g><g
           transform="translate(26.6804,26.3604)"
           id="g86"><path
             id="path88"
             style="fill:#ffffff;fill-opacity:1;fill-rule:nonzero;stroke:none"
             d="M 0,0 H 0.852 V 1.919 H 2.447 V 0 H 3.502 V -1.08 H 2.447 v -3.262 c 0,-0.456 0.251,-0.612 0.611,-0.612 0.204,0 0.48,0.013 0.48,0.013 v -1.2 c 0,0 -0.372,-0.024 -1.019,-0.024 -0.792,0 -1.667,0.311 -1.667,1.477 V -1.08 H 0 Z" /></g><path
           id="path90"
           style="fill:#ffffff;fill-opacity:1;fill-rule:nonzero;stroke:none"
           d="m 31.024,26.36 h 1.631 v -6.153 h -1.631 z m 0,2.422 h 1.631 v -1.463 h -1.631 z" /><g
           transform="translate(33.3523,26.3604)"
           id="g92"><path
             id="path94"
             style="fill:#ffffff;fill-opacity:1;fill-rule:nonzero;stroke:none"
             d="M 0,0 H 0.852 V 1.919 H 2.447 V 0 H 3.502 V -1.08 H 2.447 v -3.262 c 0,-0.456 0.251,-0.612 0.611,-0.612 0.204,0 0.48,0.013 0.48,0.013 v -1.2 c 0,0 -0.372,-0.024 -1.019,-0.024 -0.792,0 -1.667,0.311 -1.667,1.477 V -1.08 H 0 Z" /></g><g
           transform="translate(41.5818,20.207)"
           id="g96"><path
             id="path98"
             style="fill:#ffffff;fill-opacity:1;fill-rule:nonzero;stroke:none"
             d="m 0,0 v 0.72 h -0.036 c -0.42,-0.564 -0.901,-0.888 -1.763,-0.888 -1.368,0 -2.136,0.876 -2.136,2.219 v 4.102 h 1.62 V 2.327 c 0,-0.72 0.324,-1.115 1.02,-1.115 0.767,0 1.234,0.575 1.234,1.391 v 3.55 H 1.57 V 0 Z" /></g><g
           transform="translate(43.8523,26.3604)"
           id="g100"><path
             id="path102"
             style="fill:#ffffff;fill-opacity:1;fill-rule:nonzero;stroke:none"
             d="M 0,0 H 0.852 V 1.919 H 2.447 V 0 H 3.502 V -1.08 H 2.447 v -3.262 c 0,-0.456 0.251,-0.612 0.611,-0.612 0.204,0 0.48,0.013 0.48,0.013 v -1.2 c 0,0 -0.372,-0.024 -1.019,-0.024 -0.792,0 -1.667,0.311 -1.667,1.477 V -1.08 H 0 Z" /></g><g
           transform="translate(49.4665,23.9492)"
           id="g104"><path
             id="path106"
             style="fill:#ffffff;fill-opacity:1;fill-rule:nonzero;stroke:none"
             d="M 0,0 H 2.734 C 2.688,0.779 2.171,1.319 1.429,1.319 0.564,1.319 0.145,0.804 0,0 m -1.631,-0.659 c 0,1.822 1.235,3.237 3.034,3.237 1.979,0 3.034,-1.511 3.034,-3.705 h -4.46 c 0.12,-0.948 0.647,-1.535 1.57,-1.535 0.637,0 1.009,0.287 1.187,0.755 H 4.342 C 4.114,-2.998 3.144,-3.922 1.561,-3.922 c -2.04,0 -3.192,1.428 -3.192,3.263" /></g><g
           transform="translate(61.1521,23.2773)"
           id="g108"><path
             id="path110"
             style="fill:#ffffff;fill-opacity:1;fill-rule:nonzero;stroke:none"
             d="m 0,0 c 0,1.199 -0.562,2.016 -1.559,2.016 -1.006,0 -1.559,-0.817 -1.559,-2.016 0,-1.199 0.553,-2.003 1.559,-2.003 C -0.562,-2.003 0,-1.199 0,0 m -4.772,0 c 0,1.835 1.306,3.25 3.213,3.25 1.908,0 3.214,-1.415 3.214,-3.25 0,-1.835 -1.306,-3.25 -3.214,-3.25 -1.907,0 -3.213,1.415 -3.213,3.25" /></g><g
           transform="translate(63.0876,26.3604)"
           id="g112"><path
             id="path114"
             style="fill:#ffffff;fill-opacity:1;fill-rule:nonzero;stroke:none"
             d="m 0,0 h 0.84 v 0.551 c 0,1.5 1.163,2.027 2.734,1.859 V 1.151 C 2.808,1.187 2.472,1.091 2.472,0.455 V 0 H 3.574 V -1.128 H 2.472 V -6.153 H 0.84 v 5.025 H 0 Z" /></g><g
           transform="translate(11.8122,16.7822)"
           id="g116"><path
             id="path118"
             style="fill:#ffffff;fill-opacity:1;fill-rule:nonzero;stroke:none"
             d="M 0,0 H 6.896 V -1.463 H 4.318 V -8.575 H 2.579 v 7.112 H 0 Z" /></g><g
           transform="translate(19.4079,11.9492)"
           id="g120"><path
             id="path122"
             style="fill:#ffffff;fill-opacity:1;fill-rule:nonzero;stroke:none"
             d="M 0,0 H 2.733 C 2.687,0.779 2.171,1.319 1.427,1.319 0.563,1.319 0.144,0.804 0,0 m -1.631,-0.659 c 0,1.822 1.235,3.237 3.033,3.237 1.98,0 3.035,-1.511 3.035,-3.705 h -4.461 c 0.12,-0.948 0.648,-1.535 1.571,-1.535 0.636,0 1.008,0.287 1.186,0.755 H 4.342 C 4.114,-2.998 3.143,-3.922 1.559,-3.922 c -2.038,0 -3.19,1.428 -3.19,3.263" /></g><g
           transform="translate(24.3044,11.2773)"
           id="g124"><path
             id="path126"
             style="fill:#ffffff;fill-opacity:1;fill-rule:nonzero;stroke:none"
             d="m 0,0 c 0,1.835 1.199,3.25 3.07,3.25 1.595,0 2.579,-0.923 2.795,-2.254 H 4.271 C 4.162,1.535 3.742,1.943 3.143,1.943 2.159,1.943 1.655,1.187 1.655,0 c 0,-1.163 0.468,-1.942 1.463,-1.942 0.66,0 1.128,0.347 1.236,1.043 H 5.925 C 5.816,-2.206 4.797,-3.25 3.154,-3.25 1.211,-3.25 0,-1.835 0,0" /></g><g
           transform="translate(32.571,13.5566)"
           id="g128"><path
             id="path130"
             style="fill:#ffffff;fill-opacity:1;fill-rule:nonzero;stroke:none"
             d="m 0,0 h 0.036 c 0.444,0.646 0.947,0.971 1.787,0.971 1.272,0 2.123,-0.959 2.123,-2.303 V -5.35 H 2.315 v 3.779 c 0,0.659 -0.383,1.127 -1.067,1.127 C 0.528,-0.444 0,-1.021 0,-1.859 V -5.35 H -1.631 V 3.226 H 0 Z" /></g><g
           transform="translate(39.1237,13.5205)"
           id="g132"><path
             id="path134"
             style="fill:#ffffff;fill-opacity:1;fill-rule:nonzero;stroke:none"
             d="m 0,0 h 0.036 c 0.42,0.659 0.983,1.007 1.822,1.007 1.272,0 2.122,-0.959 2.122,-2.303 V -5.313 H 2.351 v 3.778 c 0,0.659 -0.384,1.127 -1.068,1.127 -0.721,0 -1.247,-0.575 -1.247,-1.415 v -3.49 H -1.596 V 0.84 H 0 Z" /></g><g
           transform="translate(48.5896,11.2773)"
           id="g136"><path
             id="path138"
             style="fill:#ffffff;fill-opacity:1;fill-rule:nonzero;stroke:none"
             d="m 0,0 c 0,1.199 -0.563,2.016 -1.56,2.016 -1.006,0 -1.559,-0.817 -1.559,-2.016 0,-1.199 0.553,-2.003 1.559,-2.003 C -0.563,-2.003 0,-1.199 0,0 m -4.772,0 c 0,1.835 1.306,3.25 3.212,3.25 1.909,0 3.215,-1.415 3.215,-3.25 0,-1.835 -1.306,-3.25 -3.215,-3.25 -1.906,0 -3.212,1.415 -3.212,3.25" /></g><path
           id="path140"
           style="fill:#ffffff;fill-opacity:1;fill-rule:nonzero;stroke:none"
           d="m 51.028,16.782 h 1.631 V 8.207 h -1.631 z" /><g
           transform="translate(58.2126,11.2773)"
           id="g142"><path
             id="path144"
             style="fill:#ffffff;fill-opacity:1;fill-rule:nonzero;stroke:none"
             d="m 0,0 c 0,1.199 -0.562,2.016 -1.559,2.016 -1.006,0 -1.559,-0.817 -1.559,-2.016 0,-1.199 0.553,-2.003 1.559,-2.003 C -0.562,-2.003 0,-1.199 0,0 m -4.772,0 c 0,1.835 1.306,3.25 3.213,3.25 1.908,0 3.214,-1.415 3.214,-3.25 0,-1.835 -1.306,-3.25 -3.214,-3.25 -1.907,0 -3.213,1.415 -3.213,3.25" /></g><g
           transform="translate(64.7654,11.5537)"
           id="g146"><path
             id="path148"
             style="fill:#ffffff;fill-opacity:1;fill-rule:nonzero;stroke:none"
             d="m 0,0 c 0,0.899 -0.479,1.667 -1.463,1.667 -0.827,0 -1.379,-0.647 -1.379,-1.68 0,-1.043 0.552,-1.654 1.391,-1.654 C -0.419,-1.667 0,-0.912 0,0 m -4.306,-3.526 h 1.619 c 0.132,-0.384 0.481,-0.684 1.236,-0.684 0.925,0 1.367,0.443 1.367,1.283 v 0.672 h -0.035 c -0.36,-0.408 -0.827,-0.72 -1.608,-0.72 -1.367,0 -2.71,1.079 -2.71,2.939 0,1.835 1.103,3.01 2.664,3.01 0.766,0 1.331,-0.3 1.703,-0.816 h 0.022 v 0.649 h 1.571 v -5.686 c 0,-0.863 -0.275,-1.451 -0.731,-1.871 -0.516,-0.479 -1.308,-0.695 -2.219,-0.695 -1.677,0 -2.711,0.719 -2.879,1.919" /></g><g
           transform="translate(67.4792,7.4756)"
           id="g150"><path
             id="path152"
             style="fill:#ffffff;fill-opacity:1;fill-rule:nonzero;stroke:none"
             d="m 0,0 h 0.576 c 0.649,0 0.911,0.336 0.911,0.84 0,0.336 -0.119,0.731 -0.466,1.667 L -0.635,6.885 H 1.08 L 1.991,4.114 C 2.185,3.55 2.388,2.771 2.388,2.771 h 0.023 c 0,0 0.168,0.779 0.36,1.343 L 3.636,6.885 H 5.277 L 3.131,0.576 C 2.663,-0.791 2.207,-1.283 0.96,-1.283 H 0 Z" /></g></g></g><g
       id="g154"><g
         clip-path="url(#clipPath160)"
         id="g156"><g
           transform="translate(13.6111,36.9336)"
           id="g162"><path
             id="path164"
             style="fill:#ffffff;fill-opacity:1;fill-rule:nonzero;stroke:none"
             d="M 0,0 H 1.799 C 2.71,0 3.19,0.419 3.19,1.175 3.19,1.954 2.688,2.338 1.823,2.338 H 0 Z M 1.416,-1.416 H 0 V -4.727 H -1.799 V 3.85 H 1.967 C 2.962,3.85 3.706,3.562 4.21,3.046 4.689,2.554 4.979,1.954 4.979,1.187 c 0,-1.2 -0.625,-2.039 -1.705,-2.399 L 5.421,-4.727 H 3.406 Z" /></g><g
           transform="translate(23.7741,35.2773)"
           id="g166"><path
             id="path168"
             style="fill:#ffffff;fill-opacity:1;fill-rule:nonzero;stroke:none"
             d="m 0,0 c 0,1.199 -0.563,2.016 -1.56,2.016 -1.006,0 -1.559,-0.817 -1.559,-2.016 0,-1.199 0.553,-2.002 1.559,-2.002 C -0.563,-2.002 0,-1.199 0,0 m -4.772,0 c 0,1.836 1.306,3.25 3.212,3.25 1.909,0 3.215,-1.414 3.215,-3.25 0,-1.834 -1.306,-3.25 -3.215,-3.25 -1.906,0 -3.212,1.416 -3.212,3.25" /></g><g
           transform="translate(25.8884,35.2773)"
           id="g170"><path
             id="path172"
             style="fill:#ffffff;fill-opacity:1;fill-rule:nonzero;stroke:none"
             d="m 0,0 c 0,1.836 1.199,3.25 3.07,3.25 1.596,0 2.579,-0.923 2.795,-2.254 H 4.271 C 4.162,1.535 3.742,1.943 3.143,1.943 2.159,1.943 1.655,1.187 1.655,0 c 0,-1.163 0.468,-1.942 1.463,-1.942 0.66,0 1.128,0.347 1.236,1.044 H 5.926 C 5.817,-2.206 4.797,-3.25 3.154,-3.25 1.211,-3.25 0,-1.834 0,0" /></g><g
           transform="translate(34.155,37.5566)"
           id="g174"><path
             id="path176"
             style="fill:#ffffff;fill-opacity:1;fill-rule:nonzero;stroke:none"
             d="m 0,0 h 0.036 c 0.444,0.647 0.947,0.971 1.787,0.971 1.272,0 2.123,-0.959 2.123,-2.303 V -5.35 H 2.315 v 3.779 c 0,0.659 -0.383,1.128 -1.067,1.128 C 0.528,-0.443 0,-1.02 0,-1.859 V -5.35 H -1.631 V 3.227 H 0 Z" /></g><g
           transform="translate(40.4441,35.9492)"
           id="g178"><path
             id="path180"
             style="fill:#ffffff;fill-opacity:1;fill-rule:nonzero;stroke:none"
             d="M 0,0 H 2.733 C 2.687,0.779 2.171,1.319 1.427,1.319 0.563,1.319 0.144,0.804 0,0 m -1.631,-0.659 c 0,1.823 1.235,3.237 3.033,3.237 1.98,0 3.035,-1.51 3.035,-3.705 h -4.461 c 0.12,-0.947 0.648,-1.535 1.571,-1.535 0.636,0 1.008,0.287 1.186,0.756 H 4.342 C 4.113,-2.998 3.143,-3.922 1.559,-3.922 c -2.038,0 -3.19,1.428 -3.19,3.263" /></g><g
           transform="translate(45.2566,34.1982)"
           id="g182"><path
             id="path184"
             style="fill:#ffffff;fill-opacity:1;fill-rule:nonzero;stroke:none"
             d="m 0,0 h 1.512 c 0.107,-0.708 0.611,-1.019 1.342,-1.019 0.72,0 1.128,0.276 1.128,0.707 0,0.588 -0.78,0.648 -1.619,0.816 C 1.259,0.72 0.181,1.02 0.181,2.362 c 0,1.332 1.102,1.967 2.507,1.967 1.619,0 2.517,-0.803 2.637,-2.038 H 3.851 C 3.778,2.95 3.358,3.19 2.663,3.19 2.027,3.19 1.607,2.95 1.607,2.507 1.607,1.979 2.422,1.931 3.298,1.751 4.33,1.535 5.47,1.247 5.47,-0.192 5.47,-1.427 4.414,-2.171 2.878,-2.171 1.091,-2.171 0.097,-1.308 0,0" /></g><g
           transform="translate(50.9812,38.3604)"
           id="g186"><path
             id="path188"
             style="fill:#ffffff;fill-opacity:1;fill-rule:nonzero;stroke:none"
             d="M 0,0 H 0.852 V 1.919 H 2.446 V 0 H 3.502 V -1.079 H 2.446 v -3.263 c 0,-0.456 0.252,-0.612 0.613,-0.612 0.203,0 0.479,0.013 0.479,0.013 v -1.2 c 0,0 -0.372,-0.024 -1.019,-0.024 -0.792,0 -1.667,0.312 -1.667,1.476 v 3.61 H 0 Z" /></g><g
           transform="translate(56.5964,35.9492)"
           id="g190"><path
             id="path192"
             style="fill:#ffffff;fill-opacity:1;fill-rule:nonzero;stroke:none"
             d="M 0,0 H 2.733 C 2.687,0.779 2.171,1.319 1.427,1.319 0.562,1.319 0.144,0.804 0,0 m -1.632,-0.659 c 0,1.823 1.236,3.237 3.034,3.237 1.98,0 3.035,-1.51 3.035,-3.705 h -4.461 c 0.12,-0.947 0.647,-1.535 1.571,-1.535 0.636,0 1.007,0.287 1.186,0.756 H 4.341 C 4.113,-2.998 3.142,-3.922 1.559,-3.922 c -2.039,0 -3.191,1.428 -3.191,3.263" /></g><g
           transform="translate(63.363,37.377)"
           id="g194"><path
             id="path196"
             style="fill:#ffffff;fill-opacity:1;fill-rule:nonzero;stroke:none"
             d="m 0,0 h 0.036 c 0.372,0.695 0.792,1.055 1.511,1.055 0.181,0 0.288,-0.012 0.385,-0.047 V -0.42 H 1.896 C 0.828,-0.312 0.061,-0.876 0.061,-2.171 V -5.17 H -1.571 V 0.983 H 0 Z" /></g><path
           id="path198"
           style="fill:#ffffff;fill-opacity:1;fill-rule:nonzero;stroke:none"
           d="m 11.813,28.782 h 1.739 v -8.575 h -1.739 z" /><g
           transform="translate(16.3474,25.5205)"
           id="g200"><path
             id="path202"
             style="fill:#ffffff;fill-opacity:1;fill-rule:nonzero;stroke:none"
             d="m 0,0 h 0.036 c 0.42,0.659 0.984,1.007 1.823,1.007 1.271,0 2.122,-0.959 2.122,-2.303 V -5.313 H 2.352 v 3.778 c 0,0.659 -0.384,1.127 -1.069,1.127 -0.72,0 -1.247,-0.575 -1.247,-1.415 v -3.49 H -1.595 V 0.84 H 0 Z" /></g><g
           transform="translate(20.9568,22.1982)"
           id="g204"><path
             id="path206"
             style="fill:#ffffff;fill-opacity:1;fill-rule:nonzero;stroke:none"
             d="m 0,0 h 1.511 c 0.108,-0.708 0.612,-1.021 1.343,-1.021 0.72,0 1.127,0.278 1.127,0.709 0,0.587 -0.779,0.648 -1.619,0.816 C 1.259,0.72 0.18,1.02 0.18,2.362 c 0,1.332 1.103,1.967 2.507,1.967 1.619,0 2.518,-0.803 2.638,-2.038 H 3.85 C 3.777,2.95 3.357,3.19 2.663,3.19 2.026,3.19 1.606,2.95 1.606,2.507 1.606,1.979 2.422,1.931 3.298,1.751 4.33,1.535 5.469,1.247 5.469,-0.192 5.469,-1.428 4.414,-2.171 2.878,-2.171 1.091,-2.171 0.096,-1.308 0,0" /></g><g
           transform="translate(26.6804,26.3604)"
           id="g208"><path
             id="path210"
             style="fill:#ffffff;fill-opacity:1;fill-rule:nonzero;stroke:none"
             d="M 0,0 H 0.852 V 1.919 H 2.447 V 0 H 3.502 V -1.08 H 2.447 v -3.262 c 0,-0.456 0.251,-0.612 0.611,-0.612 0.204,0 0.48,0.013 0.48,0.013 v -1.2 c 0,0 -0.372,-0.024 -1.019,-0.024 -0.792,0 -1.667,0.311 -1.667,1.477 V -1.08 H 0 Z" /></g><path
           id="path212"
           style="fill:#ffffff;fill-opacity:1;fill-rule:nonzero;stroke:none"
           d="m 31.024,26.36 h 1.631 v -6.153 h -1.631 z m 0,2.422 h 1.631 v -1.463 h -1.631 z" /><g
           transform="translate(33.3523,26.3604)"
           id="g214"><path
             id="path216"
             style="fill:#ffffff;fill-opacity:1;fill-rule:nonzero;stroke:none"
             d="M 0,0 H 0.852 V 1.919 H 2.447 V 0 H 3.502 V -1.08 H 2.447 v -3.262 c 0,-0.456 0.251,-0.612 0.611,-0.612 0.204,0 0.48,0.013 0.48,0.013 v -1.2 c 0,0 -0.372,-0.024 -1.019,-0.024 -0.792,0 -1.667,0.311 -1.667,1.477 V -1.08 H 0 Z" /></g><g
           transform="translate(41.5818,20.207)"
           id="g218"><path
             id="path220"
             style="fill:#ffffff;fill-opacity:1;fill-rule:nonzero;stroke:none"
             d="m 0,0 v 0.72 h -0.036 c -0.42,-0.564 -0.901,-0.888 -1.763,-0.888 -1.368,0 -2.136,0.876 -2.136,2.219 v 4.102 h 1.62 V 2.327 c 0,-0.72 0.324,-1.115 1.02,-1.115 0.767,0 1.234,0.575 1.234,1.391 v 3.55 H 1.57 V 0 Z" /></g><g
           transform="translate(43.8523,26.3604)"
           id="g222"><path
             id="path224"
             style="fill:#ffffff;fill-opacity:1;fill-rule:nonzero;stroke:none"
             d="M 0,0 H 0.852 V 1.919 H 2.447 V 0 H 3.502 V -1.08 H 2.447 v -3.262 c 0,-0.456 0.251,-0.612 0.611,-0.612 0.204,0 0.48,0.013 0.48,0.013 v -1.2 c 0,0 -0.372,-0.024 -1.019,-0.024 -0.792,0 -1.667,0.311 -1.667,1.477 V -1.08 H 0 Z" /></g><g
           transform="translate(49.4665,23.9492)"
           id="g226"><path
             id="path228"
             style="fill:#ffffff;fill-opacity:1;fill-rule:nonzero;stroke:none"
             d="M 0,0 H 2.734 C 2.688,0.779 2.171,1.319 1.429,1.319 0.564,1.319 0.145,0.804 0,0 m -1.631,-0.659 c 0,1.822 1.235,3.237 3.034,3.237 1.979,0 3.034,-1.511 3.034,-3.705 h -4.46 c 0.12,-0.948 0.647,-1.535 1.57,-1.535 0.637,0 1.009,0.287 1.187,0.755 H 4.342 C 4.114,-2.998 3.144,-3.922 1.561,-3.922 c -2.04,0 -3.192,1.428 -3.192,3.263" /></g><g
           transform="translate(61.1521,23.2773)"
           id="g230"><path
             id="path232"
             style="fill:#ffffff;fill-opacity:1;fill-rule:nonzero;stroke:none"
             d="m 0,0 c 0,1.199 -0.562,2.016 -1.559,2.016 -1.006,0 -1.559,-0.817 -1.559,-2.016 0,-1.199 0.553,-2.003 1.559,-2.003 C -0.562,-2.003 0,-1.199 0,0 m -4.772,0 c 0,1.835 1.306,3.25 3.213,3.25 1.908,0 3.214,-1.415 3.214,-3.25 0,-1.835 -1.306,-3.25 -3.214,-3.25 -1.907,0 -3.213,1.415 -3.213,3.25" /></g><g
           transform="translate(63.0876,26.3604)"
           id="g234"><path
             id="path236"
             style="fill:#ffffff;fill-opacity:1;fill-rule:nonzero;stroke:none"
             d="m 0,0 h 0.84 v 0.551 c 0,1.5 1.163,2.027 2.734,1.859 V 1.151 C 2.808,1.187 2.472,1.091 2.472,0.455 V 0 H 3.574 V -1.128 H 2.472 V -6.153 H 0.84 v 5.025 H 0 Z" /></g><g
           transform="translate(11.8122,16.7822)"
           id="g238"><path
             id="path240"
             style="fill:#ffffff;fill-opacity:1;fill-rule:nonzero;stroke:none"
             d="M 0,0 H 6.896 V -1.463 H 4.318 V -8.575 H 2.579 v 7.112 H 0 Z" /></g><g
           transform="translate(19.4079,11.9492)"
           id="g242"><path
             id="path244"
             style="fill:#ffffff;fill-opacity:1;fill-rule:nonzero;stroke:none"
             d="M 0,0 H 2.733 C 2.687,0.779 2.171,1.319 1.427,1.319 0.563,1.319 0.144,0.804 0,0 m -1.631,-0.659 c 0,1.822 1.235,3.237 3.033,3.237 1.98,0 3.035,-1.511 3.035,-3.705 h -4.461 c 0.12,-0.948 0.648,-1.535 1.571,-1.535 0.636,0 1.008,0.287 1.186,0.755 H 4.342 C 4.114,-2.998 3.143,-3.922 1.559,-3.922 c -2.038,0 -3.19,1.428 -3.19,3.263" /></g><g
           transform="translate(24.3044,11.2773)"
           id="g246"><path
             id="path248"
             style="fill:#ffffff;fill-opacity:1;fill-rule:nonzero;stroke:none"
             d="m 0,0 c 0,1.835 1.199,3.25 3.07,3.25 1.595,0 2.579,-0.923 2.795,-2.254 H 4.271 C 4.162,1.535 3.742,1.943 3.143,1.943 2.159,1.943 1.655,1.187 1.655,0 c 0,-1.163 0.468,-1.942 1.463,-1.942 0.66,0 1.128,0.347 1.236,1.043 H 5.925 C 5.816,-2.206 4.797,-3.25 3.154,-3.25 1.211,-3.25 0,-1.835 0,0" /></g><g
           transform="translate(32.571,13.5566)"
           id="g250"><path
             id="path252"
             style="fill:#ffffff;fill-opacity:1;fill-rule:nonzero;stroke:none"
             d="m 0,0 h 0.036 c 0.444,0.646 0.947,0.971 1.787,0.971 1.272,0 2.123,-0.959 2.123,-2.303 V -5.35 H 2.315 v 3.779 c 0,0.659 -0.383,1.127 -1.067,1.127 C 0.528,-0.444 0,-1.021 0,-1.859 V -5.35 H -1.631 V 3.226 H 0 Z" /></g><g
           transform="translate(39.1237,13.5205)"
           id="g254"><path
             id="path256"
             style="fill:#ffffff;fill-opacity:1;fill-rule:nonzero;stroke:none"
             d="m 0,0 h 0.036 c 0.42,0.659 0.983,1.007 1.822,1.007 1.272,0 2.122,-0.959 2.122,-2.303 V -5.313 H 2.351 v 3.778 c 0,0.659 -0.384,1.127 -1.068,1.127 -0.721,0 -1.247,-0.575 -1.247,-1.415 v -3.49 H -1.596 V 0.84 H 0 Z" /></g><g
           transform="translate(48.5896,11.2773)"
           id="g258"><path
             id="path260"
             style="fill:#ffffff;fill-opacity:1;fill-rule:nonzero;stroke:none"
             d="m 0,0 c 0,1.199 -0.563,2.016 -1.56,2.016 -1.006,0 -1.559,-0.817 -1.559,-2.016 0,-1.199 0.553,-2.003 1.559,-2.003 C -0.563,-2.003 0,-1.199 0,0 m -4.772,0 c 0,1.835 1.306,3.25 3.212,3.25 1.909,0 3.215,-1.415 3.215,-3.25 0,-1.835 -1.306,-3.25 -3.215,-3.25 -1.906,0 -3.212,1.415 -3.212,3.25" /></g><path
           id="path262"
           style="fill:#ffffff;fill-opacity:1;fill-rule:nonzero;stroke:none"
           d="m 51.028,16.782 h 1.631 V 8.207 h -1.631 z" /><g
           transform="translate(58.2126,11.2773)"
           id="g264"><path
             id="path266"
             style="fill:#ffffff;fill-opacity:1;fill-rule:nonzero;stroke:none"
             d="m 0,0 c 0,1.199 -0.562,2.016 -1.559,2.016 -1.006,0 -1.559,-0.817 -1.559,-2.016 0,-1.199 0.553,-2.003 1.559,-2.003 C -0.562,-2.003 0,-1.199 0,0 m -4.772,0 c 0,1.835 1.306,3.25 3.213,3.25 1.908,0 3.214,-1.415 3.214,-3.25 0,-1.835 -1.306,-3.25 -3.214,-3.25 -1.907,0 -3.213,1.415 -3.213,3.25" /></g><g
           transform="translate(64.7654,11.5537)"
           id="g268"><path
             id="path270"
             style="fill:#ffffff;fill-opacity:1;fill-rule:nonzero;stroke:none"
             d="m 0,0 c 0,0.899 -0.479,1.667 -1.463,1.667 -0.827,0 -1.379,-0.647 -1.379,-1.68 0,-1.043 0.552,-1.654 1.391,-1.654 C -0.419,-1.667 0,-0.912 0,0 m -4.306,-3.526 h 1.619 c 0.132,-0.384 0.481,-0.684 1.236,-0.684 0.925,0 1.367,0.443 1.367,1.283 v 0.672 h -0.035 c -0.36,-0.408 -0.827,-0.72 -1.608,-0.72 -1.367,0 -2.71,1.079 -2.71,2.939 0,1.835 1.103,3.01 2.664,3.01 0.766,0 1.331,-0.3 1.703,-0.816 h 0.022 v 0.649 h 1.571 v -5.686 c 0,-0.863 -0.275,-1.451 -0.731,-1.871 -0.516,-0.479 -1.308,-0.695 -2.219,-0.695 -1.677,0 -2.711,0.719 -2.879,1.919" /></g><g
           transform="translate(67.4792,7.4756)"
           id="g272"><path
             id="path274"
             style="fill:#ffffff;fill-opacity:1;fill-rule:nonzero;stroke:none"
             d="m 0,0 h 0.576 c 0.649,0 0.911,0.336 0.911,0.84 0,0.336 -0.119,0.731 -0.466,1.667 L -0.635,6.885 H 1.08 L 1.991,4.114 C 2.185,3.55 2.388,2.771 2.388,2.771 h 0.023 c 0,0 0.168,0.779 0.36,1.343 L 3.636,6.885 H 5.277 L 3.131,0.576 C 2.663,-0.791 2.207,-1.283 0.96,-1.283 H 0 Z" /></g><path
           id="path276"
           style="fill:#ffffff;fill-opacity:1;fill-rule:nonzero;stroke:none"
           d="M 8.179,48.175 H 74.298 V 47.793 H 8.179 Z" /></g></g></g></svg>